PathFileType	4	(X/Y/Z)	c:\Git\powerlifing_model_clean\simulations\HC835B\Session1\HC835B_OGW_0004\marker_experimental.trc
DataRate	CameraRate	NumFrames	NumMarkers	Units	OrigDataRate	OrigDataStartFrame	OrigNumFrames
240.000000	240.000000	4	38	mm	240.000000	375	429
Frame#	Time	RPSI			LPSI			RASI			LASI			RTH1			RTH2			RTH3			RTH4			RSK1			RSK2			RSK3			RSK4			RCAL1			RCAL2			RCAL3			RST			RPT			RTN			RFMB			RSMB			RVMB			RFMH			RSMH			RVMH			RPM			LTH1			LTH2			LTH3			LTH4			LSK1			LSK2			LSK3			LSK4			LCAL1			LCAL2			LCAL3			LFMH			LVMH			
		X1	Y1	Z1	X2	Y2	Z2	X3	Y3	Z3	X4	Y4	Z4	X5	Y5	Z5	X6	Y6	Z6	X7	Y7	Z7	X8	Y8	Z8	X9	Y9	Z9	X10	Y10	Z10	X11	Y11	Z11	X12	Y12	Z12	X13	Y13	Z13	X14	Y14	Z14	X15	Y15	Z15	X16	Y16	Z16	X17	Y17	Z17	X18	Y18	Z18	X19	Y19	Z19	X20	Y20	Z20	X21	Y21	Z21	X22	Y22	Z22	X23	Y23	Z23	X24	Y24	Z24	X25	Y25	Z25	X26	Y26	Z26	X27	Y27	Z27	X28	Y28	Z28	X29	Y29	Z29	X30	Y30	Z30	X31	Y31	Z31	X32	Y32	Z32	X33	Y33	Z33	X34	Y34	Z34	X35	Y35	Z35	X36	Y36	Z36	X37	Y37	Z37	X38	Y38	Z38	

376	1.5625	444.2954101562501	1127.834838867188	-100.6453247070313	551.5487060546876	1114.289428710938	-96.48697662353518	366.0913085937501	1077.708984375	101.8102569580078	609.8457031250001	1067.539184570313	113.939208984375	311.6122436523438	815.348327636719	-29.12012290954591	323.9639587402344	790.8973388671877	25.58518791198731	327.6162414550782	732.0562133789064	-24.92387199401856	350.6091613769532	710.1669311523439	24.90560340881348	397.708221435547	310.4957580566407	-230.2935791015626	392.0778198242189	280.5284423828126	-176.4166259765625	403.132049560547	252.5952453613282	-229.1965942382813	411.5066528320314	224.5579681396485	-176.3692932128907	476.3477478027345	110.0379104614258	-318.3819274902344	506.3918762207032	71.40573120117189	-310.0398254394532	443.0722961425782	74.32224273681642	-322.1521911621094	511.5716552734376	79.84951782226564	-239.8952636718751	411.7691345214845	81.01126098632814	-265.5363464355469	491.1701965332032	94.79035949707033	-184.5297393798828	481.5519104003907	77.8978729248047	-154.057601928711	432.3417968750001	101.1725692749024	-151.3026885986328	394.8474121093751	52.5520362854004	-226.5016784667969	473.6639099121095	50.47436904907228	-103.1261901855469	419.0134887695314	62.80401992797853	-96.09416961669925	365.8169250488282	42.34409713745118	-152.7673950195313	422.4661560058595	45.0267677307129	-36.22154235839844	684.9705200195314	794.700134277344	104.4132766723633	679.5471191406251	805.0655517578127	163.9789276123047	681.1696166992189	724.6267089843751	153.5302734375	660.7494506835939	735.2019042968751	210.4258422851563	659.6434326171876	299.9834594726563	278.6250305175782	670.6888427734376	305.8045349121094	330.4324645996094	661.4987792968751	258.0846557617188	316.8495788574219	657.3012695312501	268.2139282226563	372.3117370605469	603.9768676757814	100.6637573242188	341.6384582519532	633.2617187500001	65.56870269775392	353.5176086425782	574.4525756835939	71.18701934814455	361.7042541503907	598.0181884765626	165.588851928711	559.2255859375001	695.5032348632814	118.1088562011719	529.5089721679689	
377	1.566666666666667	444.5451660156251	1126.367065429688	-93.70596313476564	551.9505615234376	1112.676513671875	-89.42135620117189	365.9434814453126	1076.311279296875	108.8179779052735	609.7614135742189	1066.413696289063	121.2314910888672	311.6903686523438	814.754577636719	-23.4933032989502	323.7806396484376	789.8953857421877	31.10055923461915	327.5671386718751	731.4807739257814	-19.57268905639649	350.3514709472657	709.2307128906251	30.20813369750977	397.6456298828126	311.2763671875001	-227.6936645507813	391.9998779296876	280.6693725585938	-174.5288543701172	403.0220642089845	253.7154083251954	-227.2499389648438	411.4227905273439	224.7466888427735	-174.8780975341797	476.2205200195314	111.461181640625	-317.7591857910157	506.2933349609376	72.77586364746095	-309.6932983398438	442.9090270996095	75.55071258544923	-321.7507934570313	511.4296264648439	80.77365875244142	-239.4647674560547	411.614715576172	81.87158966064455	-265.1568298339844	490.960174560547	95.30014801025392	-184.0474395751953	481.4015502929689	78.17210388183595	-153.6886596679688	432.1221618652345	101.2744903564453	-150.7810516357422	394.6975708007814	53.06860733032228	-226.1491088867188	473.5506591796876	50.46413421630861	-102.9681549072266	418.823944091797	62.6180992126465	-95.88368988037111	365.7646484375001	42.3299903869629	-152.7364196777344	422.3387145996095	44.73236083984376	-36.11104583740235	685.5532836914064	792.2608032226565	109.6517715454102	679.3591308593751	802.1572265625002	169.204345703125	681.3143310546876	721.8252563476564	158.1600341796875	660.3296508789064	731.9539794921876	214.9516754150391	659.1744384765626	298.7926635742188	288.6747741699219	670.0287475585939	305.6038818359376	340.3374938964844	660.8952026367189	257.6881713867188	327.6503906250001	656.5535888671876	268.8341369628907	382.9214782714844	603.0454101562501	100.4194869995117	355.3802490234376	632.2726440429689	65.58199310302736	368.1967468261719	573.4735717773439	71.34664916992189	376.4022827148438	597.2827758789064	169.6992797851563	571.8986206054689	694.8692626953126	121.8589172363282	542.8992919921876	
378	1.570833333333333	444.8382568359376	1124.849975585938	-86.65114593505861	552.3391723632814	1111.3134765625	-82.38943481445314	365.8896484375001	1075.262573242188	115.7640991210938	609.6068725585939	1065.388549804688	128.5075378417969	311.6668395996094	814.148376464844	-17.73043251037598	323.5987854003907	789.040954589844	36.7728500366211	327.5149841308594	730.8270874023439	-14.0903434753418	350.0420837402344	708.3546142578126	35.77447128295899	397.5603332519532	312.0842895507813	-225.0803375244141	391.7925415039064	280.9324951171876	-172.1929321289063	402.778533935547	254.481185913086	-225.1492614746094	411.1231079101564	225.0083770751954	-173.1222381591797	473.8707885742189	113.4914321899414	-317.8006896972657	506.1729736328126	74.2608108520508	-309.2846984863282	442.7798767089845	76.97927093505861	-321.2091369628907	511.3040466308595	81.77634429931642	-238.9981231689454	411.4915771484376	82.82176971435548	-264.8150634765626	490.7606506347657	95.86875915527345	-183.5027008056641	481.2026367187501	78.46898651123048	-153.2893981933594	431.9124755859376	101.4340057373047	-150.2689819335938	394.6219482421876	53.86937713623048	-225.8174438476563	473.4556274414064	50.46216964721681	-102.8107223510742	418.6001281738282	62.40303039550783	-95.67026519775392	365.7184143066407	42.31577682495118	-152.6693420410157	422.2595825195314	44.46867370605469	-35.98516082763673	686.8594360351564	790.0440063476565	115.5133361816407	679.8022460937501	799.5157470703127	174.9630279541016	681.4449462890626	719.3288574218751	163.421859741211	660.2817382812501	729.2841186523439	220.1997985839844	658.5548095703126	297.5863952636719	298.0898437500001	669.1168823242189	305.2252807617188	349.6956481933594	660.0079345703126	257.0720214843751	337.7813110351563	655.7421264648439	269.2642822265626	392.9095764160157	601.3794555664064	99.86614227294925	368.8291625976563	630.7471313476564	65.38497161865236	381.9905395507813	572.1044921875001	71.37223052978517	390.0284118652345	596.5573120117189	173.617660522461	583.5684814453126	694.0548095703126	125.0104217529297	555.3746948242189	
379	1.575	445.1213378906251	1123.423095703125	-79.5987014770508	552.6884155273439	1109.948974609375	-75.52755737304689	365.8156738281251	1074.247802734375	122.7767028808594	609.3416137695314	1064.408203125	135.734848022461	311.6709594726563	813.3960571289065	-11.86772155761719	323.3670349121094	788.1123657226565	42.5879249572754	327.3720703125001	730.0714111328126	-8.490772247314455	349.6161193847657	707.2592773437501	41.31485748291016	397.4552307128907	312.8406066894532	-222.5509033203126	391.6355895996095	281.2204284667969	-169.9028015136719	402.9612426757814	254.9515228271485	-223.4003295898438	410.9445190429689	225.2566375732422	-171.4347381591797	473.8250122070314	115.1800079345703	-317.2978515625001	506.0039978027345	75.82496643066408	-308.8554687500001	442.611785888672	78.51458740234376	-320.7902526855469	511.1366271972657	82.8585891723633	-238.5084838867188	411.2930297851564	83.92990112304689	-264.3382568359376	490.5622863769532	96.44897460937503	-182.940658569336	481.018035888672	78.79935455322267	-152.8604125976563	431.661834716797	101.5895156860352	-149.683578491211	394.4697875976564	54.45492553710939	-225.5381317138672	473.3379516601564	50.4806365966797	-102.6422195434571	418.4293518066407	62.17224884033205	-95.42922210693361	365.6733398437501	42.29965591430665	-152.6364288330078	422.1443481445314	44.21657180786134	-35.84770584106446	687.6766967773439	788.0081176757815	121.7338638305664	679.9658203125001	797.4749145507815	181.0506896972657	681.4252929687501	717.1762084960939	169.5565490722657	660.2791748046876	727.2681274414064	226.2740325927735	657.6995849609376	296.2385864257813	306.8100891113282	668.2709960937501	304.7163085937501	358.3241271972657	659.0049438476564	256.3832397460938	347.1007385253907	654.9329833984376	269.4498596191407	402.0802001953126	599.7578125000001	99.3304138183594	380.4981384277344	628.8425292968751	64.84241485595705	394.5951232910157	569.9578857421876	71.56100463867189	402.8258361816407	595.8652954101564	177.4221496582032	594.1336669921876	692.8398437500001	127.0632934570313	566.6779174804689	
